<svg width="105" height="29" viewBox="0 0 105 29" fill="none" xmlns="http://www.w3.org/2000/svg">
<path d="M16.5534 19.0767C16.3041 20.8093 15.6735 22.1804 14.6614 23.19C13.6492 24.1997 12.2537 24.7082 10.475 24.7157C8.81095 24.7157 7.34769 24.0881 6.08501 22.8329C4.82233 21.5777 4.19102 19.9673 4.19102 18.0016C4.16281 16.775 4.46351 15.5632 5.06215 14.4922C5.56816 13.5641 6.32241 12.795 7.24043 12.271C8.09913 11.7975 9.06444 11.551 10.045 11.5549C11.4921 11.5549 12.703 11.9811 13.6778 12.8337C14.6525 13.6863 15.2565 14.8567 15.4896 16.345L19.4814 15.0755C19.0563 12.8244 17.9968 11.0469 16.3029 9.74312C14.6089 8.43931 12.5249 7.78799 10.0507 7.78924C8.29513 7.77381 6.56615 8.21859 5.03604 9.07932C3.50717 9.93843 2.24101 11.1975 1.37331 12.7215C0.449601 14.3262 -0.0244547 16.1502 0.000971574 18.0016C0.000971574 21.1539 0.976989 23.6886 2.92896 25.6057C4.88094 27.5228 7.46603 28.4813 10.6844 28.4813C13.2235 28.4813 15.3761 27.7821 17.1424 26.3835C18.9086 24.985 20.038 23.0304 20.5303 20.5201L16.5534 19.0767Z" fill="#CFFF5E"/>
<path d="M59.7549 9.76367C58.486 8.45238 56.8033 7.79731 54.7067 7.79856C51.8685 7.79856 49.7876 8.90355 48.4638 11.1135V8.20801H44.0625V28.0811H48.4638V17.0088C48.4638 15.3447 48.9037 14.0209 49.7837 13.0375C50.2021 12.5598 50.7205 12.1802 51.3021 11.9255C51.8838 11.6709 52.5145 11.5475 53.1492 11.5642C54.4194 11.5642 55.4221 12.0079 56.1575 12.8954C56.893 13.7829 57.2613 15.0176 57.2626 16.5993V28.0811H61.6639V15.0774C61.6601 12.8437 61.0238 11.0725 59.7549 9.76367Z" fill="#CFFF5E"/>
<path d="M76.5206 21.3689C76.4408 22.5144 76.1748 23.3602 75.7223 23.9062C75.2698 24.4521 74.6222 24.7251 73.7795 24.7251C73.4486 24.7355 73.1191 24.6782 72.8111 24.5567C72.5031 24.4351 72.223 24.2519 71.9884 24.0183C71.5172 23.5496 71.2817 22.8778 71.2817 22.0028V11.9942H78.8128V8.20802H71.2817V1.88287H66.8804V8.20802H62.8903V11.9942H66.8804V21.8083C66.8804 23.9273 67.4912 25.5714 68.7127 26.7406C69.9343 27.9098 71.698 28.4963 74.0039 28.5C75.9148 28.5 77.4635 27.9509 78.6501 26.8528C79.8367 25.7547 80.5192 24.2096 80.6975 22.2178L76.5206 21.3689Z" fill="#CFFF5E"/>
<path d="M95.73 9.43643C94.6381 8.34452 93.2731 7.79852 91.6353 7.79852C90.573 7.76762 89.5274 8.06824 88.6437 8.6586C87.7917 9.26558 87.151 10.124 86.8115 11.1135V8.20798H82.4102V28.0811H86.804V14.8904C86.804 13.8807 87.0906 13.0755 87.664 12.4747C88.2373 11.8739 89.0016 11.5735 89.9564 11.5735C90.7271 11.546 91.4786 11.8174 92.0541 12.3307C92.3234 12.5722 92.537 12.8693 92.68 13.2015C92.8231 13.5337 92.892 13.8931 92.8823 14.2547C92.889 14.8198 92.8345 15.384 92.7197 15.9374H97.0874C97.2875 15.1131 97.3842 14.2671 97.3753 13.4189C97.3703 11.8134 96.8219 10.486 95.73 9.43643Z" fill="#CFFF5E"/>
<path d="M99.5741 8.208V28.0811H103.975V8.208H99.5741ZM99.3703 0V4.81076H104.179V0H99.3703Z" fill="#CFFF5E"/>
<path d="M32.7769 8.20793H30.0956V28.0811H32.7769V8.20793Z" fill="#CFFF5E"/>
<path d="M41.3737 16.8049H21.5006V19.486H41.3737V16.8049Z" fill="#CFFF5E"/>
<path d="M37.5156 10.173L23.4633 24.2253L25.3591 26.1212L39.4114 12.0689L37.5156 10.173Z" fill="#CFFF5E"/>
<path d="M25.3589 10.1716L23.4631 12.0675L37.5155 26.1199L39.4114 24.2241L25.3589 10.1716Z" fill="#CFFF5E"/>
</svg>
